<svg version="1.1" id="Layer_1" xmlns="http://www.w3.org/2000/svg" xmlns:xlink="http://www.w3.org/1999/xlink" x="0px" y="0px"
	 width="100%" viewBox="0 0 597 496" enable-background="new 0 0 597 496" xml:space="preserve">
<path fill="#F7F7F7" opacity="1.000000" stroke="none" 
	d="
M403.000000,497.000000 
	C268.697266,497.000000 134.894531,497.000000 1.045900,497.000000 
	C1.045900,331.735077 1.045900,166.470139 1.045900,1.102604 
	C199.886047,1.102604 398.772156,1.102604 597.829102,1.102604 
	C597.829102,166.333191 597.829102,331.666595 597.829102,497.000000 
	C533.136780,497.000000 468.318390,497.000000 403.000000,497.000000 
M354.265045,428.876801 
	C376.645782,421.928894 397.719910,412.117950 417.581909,399.724579 
	C456.287506,375.573334 482.601257,342.039642 493.652588,297.431274 
	C500.154297,271.187225 503.647095,244.428680 496.190643,217.906723 
	C484.771301,177.289017 465.464172,140.586136 436.571381,109.581169 
	C409.705933,80.751816 376.452332,62.741302 337.375641,57.208748 
	C298.145416,51.654449 259.592041,56.313484 222.246582,69.555626 
	C181.998932,83.826828 152.936615,110.216614 136.466980,150.019562 
	C126.156570,174.937241 121.637451,201.010223 119.661232,227.742294 
	C118.371155,245.193146 119.273827,262.359558 123.877777,279.235229 
	C133.012573,312.718567 146.956787,344.105957 165.710052,373.309143 
	C181.673294,398.167633 202.649338,417.332916 231.312256,425.976776 
	C271.608826,438.129059 312.455750,440.086884 354.265045,428.876801 
z"/>
<path fill="#121212" opacity="1.000000" stroke="none" 
	d="
M353.875305,428.982056 
	C312.455750,440.086884 271.608826,438.129059 231.312256,425.976776 
	C202.649338,417.332916 181.673294,398.167633 165.710052,373.309143 
	C146.956787,344.105957 133.012573,312.718567 123.877777,279.235229 
	C119.273827,262.359558 118.371155,245.193146 119.661232,227.742294 
	C121.637451,201.010223 126.156570,174.937241 136.466980,150.019562 
	C152.936615,110.216614 181.998932,83.826828 222.246582,69.555626 
	C259.592041,56.313484 298.145416,51.654449 337.375641,57.208748 
	C376.452332,62.741302 409.705933,80.751816 436.571381,109.581169 
	C465.464172,140.586136 484.771301,177.289017 496.190643,217.906723 
	C503.647095,244.428680 500.154297,271.187225 493.652588,297.431274 
	C482.601257,342.039642 456.287506,375.573334 417.581909,399.724579 
	C397.719910,412.117950 376.645782,421.928894 353.875305,428.982056 
M280.396881,196.896942 
	C277.576172,199.725571 274.597321,202.419266 272.012024,205.448761 
	C270.967712,206.672440 270.101746,208.727448 270.317444,210.238144 
	C271.844055,220.931793 273.688293,231.579849 275.394958,242.248245 
	C275.864624,245.184219 276.914612,247.074478 280.458344,247.053940 
	C299.602020,246.942993 318.746796,246.965027 337.890808,247.038483 
	C340.987030,247.050354 342.464630,245.696503 342.925690,242.769485 
	C344.580841,232.261276 346.399445,221.776566 347.857147,211.241608 
	C348.117950,209.356705 347.596741,206.649704 346.354889,205.381454 
	C334.156006,192.922913 321.728088,180.688644 309.100281,168.127182 
	C299.686584,177.563049 290.291779,186.979980 280.396881,196.896942 
M205.093765,274.417419 
	C199.824982,268.963837 193.409012,271.847809 187.540909,271.129639 
	C187.540909,292.030426 187.540909,312.079956 187.540909,332.441498 
	C192.038788,332.441498 196.185379,332.669952 200.297028,332.388245 
	C206.557144,331.959290 210.391068,328.343719 210.158661,322.125122 
	C209.835266,313.472626 212.498993,304.506897 207.880783,296.178467 
	C207.425537,295.357452 208.146545,293.936798 208.164520,292.792023 
	C208.259888,286.719208 209.760208,280.437592 205.093765,274.417419 
M377.757812,323.401855 
	C379.868622,329.831909 384.314087,333.013031 390.231873,332.328125 
	C396.136444,331.644714 400.210327,327.723358 400.350250,321.307983 
	C400.636261,308.193268 400.670166,295.059662 400.285126,281.949219 
	C400.089020,275.272369 395.159576,271.038055 389.018738,271.003754 
	C382.680267,270.968353 377.549713,275.473877 377.434235,282.233124 
	C377.204559,295.678040 377.506653,309.132080 377.757812,323.401855 
M303.647980,329.236053 
	C305.114258,326.009308 307.702118,322.831360 307.845032,319.547028 
	C308.357452,307.771393 308.187653,295.957245 307.986420,284.162598 
	C307.864014,276.989319 303.062439,271.959778 295.934753,271.306000 
	C292.193665,270.962830 288.395172,271.245392 284.495667,271.245392 
	C284.495667,291.837128 284.495667,311.980469 284.495667,332.079803 
	C293.757538,333.222229 298.086090,332.661896 303.647980,329.236053 
M405.923218,312.466431 
	C405.923248,314.298645 405.912415,316.130951 405.925110,317.963104 
	C405.988983,327.186890 410.703094,332.531799 418.663055,332.414185 
	C426.396149,332.299957 431.033630,326.993347 431.057281,318.079681 
	C431.095276,303.755096 431.075775,289.430328 431.050446,275.105713 
	C431.048218,273.841156 430.824463,272.577026 430.724243,271.528931 
	C427.933472,271.528931 425.538483,271.528931 422.975311,271.528931 
	C422.975311,273.555481 422.975372,275.215332 422.975281,276.875214 
	C422.974670,289.700806 422.973999,302.526367 422.973358,315.351959 
	C422.973297,316.351349 422.942902,317.351868 422.979156,318.349945 
	C423.095093,321.543823 422.201752,324.247467 418.534515,324.287842 
	C414.860840,324.328247 413.993073,321.670227 414.002380,318.451721 
	C414.042786,304.460297 414.019226,290.468689 414.018890,276.477142 
	C414.018860,274.735016 414.018890,272.992920 414.018890,271.394562 
	C410.928711,271.394562 408.648895,271.394562 405.923218,271.394562 
	C405.923218,284.907898 405.923218,298.192413 405.923218,312.466431 
M231.931396,313.399292 
	C231.925919,315.397919 232.498032,317.649200 231.763367,319.328918 
	C230.914627,321.269440 228.914337,322.706299 227.414047,324.361847 
	C225.941177,322.704620 223.366562,321.151581 223.198090,319.370972 
	C222.651459,313.592712 222.983856,307.731049 222.982635,301.901520 
	C222.980530,291.788696 222.982056,281.675873 222.982056,271.419373 
	C220.078949,271.419373 217.681870,271.419373 214.984039,271.419373 
	C214.984039,288.295380 214.976532,304.914886 215.006821,321.534363 
	C215.008286,322.340637 215.269775,323.170593 215.531967,323.948456 
	C217.616852,330.133972 222.777130,333.125854 229.647797,332.166016 
	C235.764542,331.311523 239.939178,326.412048 239.986435,319.503601 
	C240.091263,304.180817 240.025711,288.856873 239.996506,273.533417 
	C239.995041,272.766663 239.680557,272.000488 239.543045,271.375916 
	C236.973206,271.375916 234.692978,271.375916 231.931442,271.375916 
	C231.931442,285.198914 231.931442,298.811462 231.931396,313.399292 
M313.485107,284.512909 
	C313.485107,291.139709 313.485107,297.766510 313.485107,304.874420 
	C318.558319,304.874420 323.124115,304.874420 328.135254,304.874420 
	C328.135254,314.429779 328.135254,323.503540 328.135254,332.547485 
	C331.023254,332.547485 333.430389,332.547485 335.819794,332.547485 
	C335.819794,311.876953 335.819794,291.503967 335.819794,271.291687 
	C333.038025,271.291687 330.620911,271.291687 327.795715,271.291687 
	C327.795715,279.830750 327.795715,288.078827 327.795715,296.534698 
	C325.596954,296.419830 323.843262,296.328247 321.582825,296.210144 
	C321.582825,287.634308 321.582825,279.405426 321.582825,271.291504 
	C318.622864,271.291504 316.208038,271.291504 313.485138,271.291504 
	C313.485138,275.561890 313.485138,279.540863 313.485107,284.512909 
M371.186493,273.854034 
	C371.384216,273.074554 371.581940,272.295074 371.833771,271.302307 
	C368.964905,271.302307 366.333801,271.302307 363.385864,271.302307 
	C361.189056,278.152985 358.998535,284.984100 356.461609,292.895416 
	C354.759735,286.981964 353.366913,282.215881 352.017853,277.437439 
	C350.000549,270.292175 349.805267,270.168854 341.723389,271.841553 
	C347.208893,291.568878 355.326630,310.853210 351.514282,332.188843 
	C355.122192,332.188843 357.667999,332.188843 360.577118,332.188843 
	C360.577118,329.199463 360.494965,326.560028 360.593628,323.927368 
	C360.823334,317.799530 360.228424,311.458221 361.621613,305.596527 
	C364.110260,295.125458 367.819672,284.944519 371.186493,273.854034 
M338.544037,193.956085 
	C342.998627,198.442184 347.322876,203.072662 352.008942,207.302277 
	C353.045105,208.237473 355.361267,207.754562 357.087982,207.924637 
	C356.808533,206.364059 357.084351,204.256989 356.166687,203.324539 
	C341.578766,188.501740 326.826294,173.841003 312.145386,159.109406 
	C310.083771,157.040649 308.199402,156.982742 306.145935,159.038773 
	C291.567047,173.636047 276.931305,188.177338 262.482025,202.901672 
	C261.429138,203.974609 261.700806,206.347366 261.356659,208.115784 
	C263.227905,207.754181 265.722687,208.038361 266.871796,206.928864 
	C276.086365,198.031631 285.047913,188.872299 294.084595,179.790863 
	C299.116364,174.734177 304.143738,169.673126 308.927063,164.861526 
	C318.823761,174.579437 328.434814,184.016846 338.544037,193.956085 
M269.577606,324.161957 
	C266.059631,324.569733 267.035828,321.950104 267.028473,320.199249 
	C266.978912,308.391693 267.004700,296.583801 267.005829,284.776031 
	C267.006287,280.175354 267.005920,275.574646 267.005920,271.153351 
	C263.994537,271.153351 261.591339,271.153351 259.234802,271.153351 
	C259.234802,291.690613 259.234802,311.902466 259.234802,332.185730 
	C265.895569,332.185730 272.293152,332.185730 278.671295,332.185730 
	C278.671295,329.432953 278.671295,327.007355 278.671295,324.163483 
	C275.797119,324.163483 273.168121,324.163483 269.577606,324.161957 
M250.409485,332.044281 
	C253.640732,332.584290 253.766556,330.646851 253.753632,328.187042 
	C253.680054,314.190338 253.718048,300.192993 253.718079,286.195892 
	C253.718094,281.239014 253.718079,276.282135 253.718079,271.314362 
	C250.647064,271.314362 248.099991,271.314362 245.483063,271.314362 
	C245.483063,291.614929 245.483063,311.556213 245.483063,331.788300 
	C246.941238,331.881256 248.220627,331.962830 250.409485,332.044281 
z"/>
<path fill="#F4F4F4" opacity="1.000000" stroke="none" 
	d="
M280.646912,196.646942 
	C290.291779,186.979980 299.686584,177.563049 309.100281,168.127182 
	C321.728088,180.688644 334.156006,192.922913 346.354889,205.381454 
	C347.596741,206.649704 348.117950,209.356705 347.857147,211.241608 
	C346.399445,221.776566 344.580841,232.261276 342.925690,242.769485 
	C342.464630,245.696503 340.987030,247.050354 337.890808,247.038483 
	C318.746796,246.965027 299.602020,246.942993 280.458344,247.053940 
	C276.914612,247.074478 275.864624,245.184219 275.394958,242.248245 
	C273.688293,231.579849 271.844055,220.931793 270.317444,210.238144 
	C270.101746,208.727448 270.967712,206.672440 272.012024,205.448761 
	C274.597321,202.419266 277.576172,199.725571 280.646912,196.646942 
M316.063110,228.679276 
	C316.199921,226.358414 316.210571,224.021637 316.500885,221.720139 
	C317.043579,217.418274 315.345642,215.422775 310.945526,215.808411 
	C309.626831,215.923996 308.285156,215.897705 306.961639,215.814682 
	C303.393494,215.590836 301.709412,217.073822 301.960266,220.784851 
	C302.385803,227.080093 302.463745,233.406754 303.138977,239.671570 
	C303.303497,241.198044 304.974518,243.417740 306.374908,243.809341 
	C312.915039,245.638153 315.289276,243.770096 315.729828,237.087677 
	C315.893616,234.602661 315.935699,232.109619 316.063110,228.679276 
z"/>
<path fill="#EDEDED" opacity="1.000000" stroke="none" 
	d="
M205.362366,274.690491 
	C209.760208,280.437592 208.259888,286.719208 208.164520,292.792023 
	C208.146545,293.936798 207.425537,295.357452 207.880783,296.178467 
	C212.498993,304.506897 209.835266,313.472626 210.158661,322.125122 
	C210.391068,328.343719 206.557144,331.959290 200.297028,332.388245 
	C196.185379,332.669952 192.038788,332.441498 187.540909,332.441498 
	C187.540909,312.079956 187.540909,292.030426 187.540909,271.129639 
	C193.409012,271.847809 199.824982,268.963837 205.362366,274.690491 
M202.104340,320.291840 
	C202.091141,315.658752 202.094681,311.025513 202.060425,306.392578 
	C202.020187,300.950836 201.638977,300.676575 195.562302,301.904175 
	C195.562302,305.435730 195.562302,309.050842 195.562302,312.665985 
	C195.562302,316.402832 195.562302,320.139648 195.562302,323.876495 
	C196.070450,324.253448 196.578598,324.630402 197.086746,325.007355 
	C198.758179,323.755493 200.429596,322.503662 202.104340,320.291840 
M196.735382,293.006104 
	C197.394455,292.999176 198.630112,293.010376 198.630981,292.982819 
	C198.767792,288.623260 198.815704,284.260895 198.867264,279.898651 
	C197.686874,280.434692 195.508926,280.934753 195.488068,281.512604 
	C195.353256,285.250824 195.688812,289.005981 196.735382,293.006104 
z"/>
<path fill="#E9E9E9" opacity="1.000000" stroke="none" 
	d="
M377.673401,322.992096 
	C377.506653,309.132080 377.204559,295.678040 377.434235,282.233124 
	C377.549713,275.473877 382.680267,270.968353 389.018738,271.003754 
	C395.159576,271.038055 400.089020,275.272369 400.285126,281.949219 
	C400.670166,295.059662 400.636261,308.193268 400.350250,321.307983 
	C400.210327,327.723358 396.136444,331.644714 390.231873,332.328125 
	C384.314087,333.013031 379.868622,329.831909 377.673401,322.992096 
M392.216370,311.469666 
	C392.214020,302.160339 392.343506,292.847198 392.076172,283.545471 
	C392.032928,282.039673 390.227356,280.584473 389.236389,279.105896 
	C388.093689,280.240234 385.978546,281.356873 385.957458,282.511688 
	C385.724091,295.306702 385.741180,308.108887 385.954987,320.904663 
	C385.972717,321.965973 387.920654,323.818756 388.960724,323.811066 
	C390.032654,323.803101 391.807465,322.092072 392.011169,320.908661 
	C392.484192,318.161194 392.195892,315.282623 392.216370,311.469666 
z"/>
<path fill="#F1F1F1" opacity="1.000000" stroke="none" 
	d="
M303.374054,329.496704 
	C298.086090,332.661896 293.757538,333.222229 284.495667,332.079803 
	C284.495667,311.980469 284.495667,291.837128 284.495667,271.245392 
	C288.395172,271.245392 292.193665,270.962830 295.934753,271.306000 
	C303.062439,271.959778 307.864014,276.989319 307.986420,284.162598 
	C308.187653,295.957245 308.357452,307.771393 307.845032,319.547028 
	C307.702118,322.831360 305.114258,326.009308 303.374054,329.496704 
M292.305695,302.499817 
	C292.305695,309.610870 292.305695,316.721893 292.305695,323.791901 
	C298.489990,324.101715 299.949341,322.935669 299.982635,317.705353 
	C300.050537,307.041840 300.073090,296.376923 299.969879,285.713989 
	C299.920959,280.663940 297.878632,279.214630 292.306030,280.188293 
	C292.306030,287.240875 292.306030,294.370453 292.305695,302.499817 
z"/>
<path fill="#F3F3F3" opacity="1.000000" stroke="none" 
	d="
M405.923218,311.971680 
	C405.923218,298.192413 405.923218,284.907898 405.923218,271.394562 
	C408.648895,271.394562 410.928711,271.394562 414.018890,271.394562 
	C414.018890,272.992920 414.018860,274.735016 414.018890,276.477142 
	C414.019226,290.468689 414.042786,304.460297 414.002380,318.451721 
	C413.993073,321.670227 414.860840,324.328247 418.534515,324.287842 
	C422.201752,324.247467 423.095093,321.543823 422.979156,318.349945 
	C422.942902,317.351868 422.973297,316.351349 422.973358,315.351959 
	C422.973999,302.526367 422.974670,289.700806 422.975281,276.875214 
	C422.975372,275.215332 422.975311,273.555481 422.975311,271.528931 
	C425.538483,271.528931 427.933472,271.528931 430.724243,271.528931 
	C430.824463,272.577026 431.048218,273.841156 431.050446,275.105713 
	C431.075775,289.430328 431.095276,303.755096 431.057281,318.079681 
	C431.033630,326.993347 426.396149,332.299957 418.663055,332.414185 
	C410.703094,332.531799 405.988983,327.186890 405.925110,317.963104 
	C405.912415,316.130951 405.923248,314.298645 405.923218,311.971680 
z"/>
<path fill="#F3F3F3" opacity="1.000000" stroke="none" 
	d="
M231.931427,312.911652 
	C231.931442,298.811462 231.931442,285.198914 231.931442,271.375916 
	C234.692978,271.375916 236.973206,271.375916 239.543045,271.375916 
	C239.680557,272.000488 239.995041,272.766663 239.996506,273.533417 
	C240.025711,288.856873 240.091263,304.180817 239.986435,319.503601 
	C239.939178,326.412048 235.764542,331.311523 229.647797,332.166016 
	C222.777130,333.125854 217.616852,330.133972 215.531967,323.948456 
	C215.269775,323.170593 215.008286,322.340637 215.006821,321.534363 
	C214.976532,304.914886 214.984039,288.295380 214.984039,271.419373 
	C217.681870,271.419373 220.078949,271.419373 222.982056,271.419373 
	C222.982056,281.675873 222.980530,291.788696 222.982635,301.901520 
	C222.983856,307.731049 222.651459,313.592712 223.198090,319.370972 
	C223.366562,321.151581 225.941177,322.704620 227.414047,324.361847 
	C228.914337,322.706299 230.914627,321.269440 231.763367,319.328918 
	C232.498032,317.649200 231.925919,315.397919 231.931427,312.911652 
z"/>
<path fill="#F2F2F2" opacity="1.000000" stroke="none" 
	d="
M313.485107,284.016357 
	C313.485138,279.540863 313.485138,275.561890 313.485138,271.291504 
	C316.208038,271.291504 318.622864,271.291504 321.582825,271.291504 
	C321.582825,279.405426 321.582825,287.634308 321.582825,296.210144 
	C323.843262,296.328247 325.596954,296.419830 327.795715,296.534698 
	C327.795715,288.078827 327.795715,279.830750 327.795715,271.291687 
	C330.620911,271.291687 333.038025,271.291687 335.819794,271.291687 
	C335.819794,291.503967 335.819794,311.876953 335.819794,332.547485 
	C333.430389,332.547485 331.023254,332.547485 328.135254,332.547485 
	C328.135254,323.503540 328.135254,314.429779 328.135254,304.874420 
	C323.124115,304.874420 318.558319,304.874420 313.485107,304.874420 
	C313.485107,297.766510 313.485107,291.139709 313.485107,284.016357 
z"/>
<path fill="#EBEBEB" opacity="1.000000" stroke="none" 
	d="
M371.102600,274.248169 
	C367.819672,284.944519 364.110260,295.125458 361.621613,305.596527 
	C360.228424,311.458221 360.823334,317.799530 360.593628,323.927368 
	C360.494965,326.560028 360.577118,329.199463 360.577118,332.188843 
	C357.667999,332.188843 355.122192,332.188843 351.514282,332.188843 
	C355.326630,310.853210 347.208893,291.568878 341.723389,271.841553 
	C349.805267,270.168854 350.000549,270.292175 352.017853,277.437439 
	C353.366913,282.215881 354.759735,286.981964 356.461609,292.895416 
	C358.998535,284.984100 361.189056,278.152985 363.385864,271.302307 
	C366.333801,271.302307 368.964905,271.302307 371.833771,271.302307 
	C371.581940,272.295074 371.384216,273.074554 371.102600,274.248169 
z"/>
<path fill="#F2F2F2" opacity="1.000000" stroke="none" 
	d="
M338.294952,193.705170 
	C328.434814,184.016846 318.823761,174.579437 308.927063,164.861526 
	C304.143738,169.673126 299.116364,174.734177 294.084595,179.790863 
	C285.047913,188.872299 276.086365,198.031631 266.871796,206.928864 
	C265.722687,208.038361 263.227905,207.754181 261.356659,208.115784 
	C261.700806,206.347366 261.429138,203.974609 262.482025,202.901672 
	C276.931305,188.177338 291.567047,173.636047 306.145935,159.038773 
	C308.199402,156.982742 310.083771,157.040649 312.145386,159.109406 
	C326.826294,173.841003 341.578766,188.501740 356.166687,203.324539 
	C357.084351,204.256989 356.808533,206.364059 357.088013,207.924652 
	C355.361267,207.754562 353.045105,208.237473 352.008942,207.302277 
	C347.322876,203.072662 342.998627,198.442184 338.294952,193.705170 
z"/>
<path fill="#F4F4F4" opacity="1.000000" stroke="none" 
	d="
M270.058350,324.162720 
	C273.168121,324.163483 275.797119,324.163483 278.671295,324.163483 
	C278.671295,327.007355 278.671295,329.432953 278.671295,332.185730 
	C272.293152,332.185730 265.895569,332.185730 259.234802,332.185730 
	C259.234802,311.902466 259.234802,291.690613 259.234802,271.153351 
	C261.591339,271.153351 263.994537,271.153351 267.005920,271.153351 
	C267.005920,275.574646 267.006287,280.175354 267.005829,284.776031 
	C267.004700,296.583801 266.978912,308.391693 267.028473,320.199249 
	C267.035828,321.950104 266.059631,324.569733 270.058350,324.162720 
z"/>
<path fill="#E1E1E1" opacity="1.000000" stroke="none" 
	d="
M249.954742,332.044342 
	C248.220627,331.962830 246.941238,331.881256 245.483063,331.788300 
	C245.483063,311.556213 245.483063,291.614929 245.483063,271.314362 
	C248.099991,271.314362 250.647064,271.314362 253.718079,271.314362 
	C253.718079,276.282135 253.718094,281.239014 253.718079,286.195892 
	C253.718048,300.192993 253.680054,314.190338 253.753632,328.187042 
	C253.766556,330.646851 253.640732,332.584290 249.954742,332.044342 
z"/>
<path fill="#161616" opacity="1.000000" stroke="none" 
	d="
M316.048218,229.149750 
	C315.935699,232.109619 315.893616,234.602661 315.729828,237.087677 
	C315.289276,243.770096 312.915039,245.638153 306.374908,243.809341 
	C304.974518,243.417740 303.303497,241.198044 303.138977,239.671570 
	C302.463745,233.406754 302.385803,227.080093 301.960266,220.784851 
	C301.709412,217.073822 303.393494,215.590836 306.961639,215.814682 
	C308.285156,215.897705 309.626831,215.923996 310.945526,215.808411 
	C315.345642,215.422775 317.043579,217.418274 316.500885,221.720139 
	C316.210571,224.021637 316.199921,226.358414 316.048218,229.149750 
z"/>
<path fill="#141414" opacity="1.000000" stroke="none" 
	d="
M202.102676,320.771820 
	C200.429596,322.503662 198.758179,323.755493 197.086746,325.007355 
	C196.578598,324.630402 196.070450,324.253448 195.562302,323.876495 
	C195.562302,320.139648 195.562302,316.402832 195.562302,312.665985 
	C195.562302,309.050842 195.562302,305.435730 195.562302,301.904175 
	C201.638977,300.676575 202.020187,300.950836 202.060425,306.392578 
	C202.094681,311.025513 202.091141,315.658752 202.102676,320.771820 
z"/>
<path fill="#2A2A2A" opacity="1.000000" stroke="none" 
	d="
M196.302765,292.880859 
	C195.688812,289.005981 195.353256,285.250824 195.488068,281.512604 
	C195.508926,280.934753 197.686874,280.434692 198.867249,279.898651 
	C198.815704,284.260895 198.767792,288.623260 198.630981,292.982819 
	C198.630112,293.010376 197.394455,292.999176 196.302765,292.880859 
z"/>
<path fill="#131313" opacity="1.000000" stroke="none" 
	d="
M392.216278,311.963440 
	C392.195892,315.282623 392.484192,318.161194 392.011169,320.908661 
	C391.807465,322.092072 390.032654,323.803101 388.960724,323.811066 
	C387.920654,323.818756 385.972717,321.965973 385.954987,320.904663 
	C385.741180,308.108887 385.724091,295.306702 385.957458,282.511688 
	C385.978546,281.356873 388.093689,280.240234 389.236389,279.105896 
	C390.227356,280.584473 392.032928,282.039673 392.076172,283.545471 
	C392.343506,292.847198 392.214020,302.160339 392.216278,311.963440 
z"/>
<path fill="#202020" opacity="1.000000" stroke="none" 
	d="
M292.305847,301.999939 
	C292.306030,294.370453 292.306030,287.240875 292.306030,280.188293 
	C297.878632,279.214630 299.920959,280.663940 299.969879,285.713989 
	C300.073090,296.376923 300.050537,307.041840 299.982635,317.705353 
	C299.949341,322.935669 298.489990,324.101715 292.305695,323.791901 
	C292.305695,316.721893 292.305695,309.610870 292.305847,301.999939 
z"/>
</svg>